<svg width="24" height="24" viewBox="0 0 24 24" fill="none" xmlns="http://www.w3.org/2000/svg">
<path fill-rule="evenodd" clip-rule="evenodd" d="M22.5 24C23.328 24 24 23.328 24 22.5V1.5C24 0.672 23.328 0 22.5 0H1.5C0.672 0 0 0.672 0 1.5V22.5C0 23.328 0.672 24 1.5 24H22.5ZM4 12.6737C4 8.4352 7.47817 5 11.7676 5C16.0581 5 19.5362 8.4352 19.5362 12.6737C19.5362 16.0624 17.3126 18.9365 14.2282 19.9532C13.8339 20.0285 13.6941 19.7896 13.6941 19.5844C13.6941 19.501 13.6952 19.3544 13.6966 19.1583C13.6995 18.7627 13.7038 18.1655 13.7038 17.4795C13.7038 16.7635 13.4553 16.2954 13.1766 16.0585C14.9069 15.8686 16.7232 15.2197 16.7232 12.2723C16.7232 11.4345 16.4227 10.7496 15.9245 10.213C16.0047 10.0188 16.2712 9.23897 15.8473 8.18246C15.8473 8.18246 15.1963 7.97624 13.7135 8.96896C13.0931 8.79872 12.4284 8.71383 11.7686 8.71047C11.1078 8.71383 10.4437 8.79872 9.82366 8.96896C8.33995 7.97624 7.68743 8.18246 7.68743 8.18246C7.26504 9.23897 7.53158 10.0188 7.61169 10.213C7.11453 10.7496 6.81206 11.4345 6.81206 12.2723C6.81206 15.2126 8.62543 15.8705 10.3504 16.0643C10.1286 16.2561 9.92756 16.5942 9.85716 17.0901C9.41438 17.2867 8.28946 17.6253 7.59615 16.4527C7.59615 16.4527 7.1859 15.7161 6.40666 15.6619C6.40666 15.6619 5.64781 15.6523 6.35325 16.1285C6.35325 16.1285 6.86255 16.3645 7.21551 17.2508C7.21551 17.2508 7.67141 18.7432 9.8324 18.2794C9.83448 18.6229 9.8374 18.9209 9.83966 19.1516C9.84162 19.3509 9.84308 19.4999 9.84308 19.5844C9.84308 19.7877 9.70131 20.0246 9.31291 19.9541C6.22556 18.9393 4 16.0633 4 12.6737Z" fill="black"/>
</svg>
