<svg width="25" height="24" viewBox="0 0 25 24" fill="none" xmlns="http://www.w3.org/2000/svg">
<path fill-rule="evenodd" clip-rule="evenodd" d="M22.8043 24C23.6323 24 24.3043 23.328 24.3043 22.5V1.5C24.3043 0.672 23.6323 0 22.8043 0H1.80432C0.976321 0 0.304321 0.672 0.304321 1.5V22.5C0.304321 23.328 0.976321 24 1.80432 24H22.8043ZM7.875 6.43304C7.875 7.22448 7.23141 7.86607 6.4375 7.86607C5.64359 7.86607 5 7.22448 5 6.43304C5 5.64159 5.64359 5 6.4375 5C7.23141 5 7.875 5.64159 7.875 6.43304ZM8.51392 8.58252H5.63892V18.6138H8.51392V8.58252ZM12.8264 10.0156C12.9903 9.31194 13.3353 8.58252 15.3413 8.58252C18.2019 8.58252 18.5764 10.7321 18.5764 13.5981V18.6138H15.7014V12.8816C15.7014 11.9416 15.1739 11.4486 14.2639 11.4486C13.3317 11.4486 12.8264 11.9523 12.8264 12.8816V18.6138H9.95142V8.58252H12.8264V10.0156Z" fill="black"/>
</svg>
